# xmcd
#
# Track frame offsets: 
#        150
#        12625
#        27143
#        43022
#        56001
#        68140
#        79724
#        88757
#        101690
#        113496
#        127577
#        140149
#        155025
#        165652
#        183271
#        197222
#        209420
#        221676
#        234622
#
# Disc length: 3265 seconds
#
# Revision: 0
# Processed by: cddbd v1.5.2PL0 Copyright (c) Steve Scherf et al.
# Submitted via: ExactAudioCopyFreeDBPlugin 1.0
#
DISCID=0d0cbf13
DTITLE=Various Artist - Country Classics CD 1
DYEAR=1900
DGENRE=Country
TTITLE0=Johnny Cash - I Walk The Line
TTITLE1=The Bellamy Brothers - If I Said You Had A Beautiful Body
TTITLE2=Willie Nelson - Always On My Mind
TTITLE3=Lynn Anderson - Rose Garden
TTITLE4=Charley Pride - The Most Beautiful Girl
TTITLE5=Patsy Cline - Walkin' After Midnight
TTITLE6=Jerry Lee Lewis - Jambalaya (On The Bayou)
TTITLE7=Merle Travis - Sixteen Tons
TTITLE8=Ernest Tubb - Walking The Floor Over You
TTITLE9=Hoyt Axton - Lonesome Road
TTITLE10=Hank Williams - I'm So Lonesome I Could Cry
TTITLE11=Anne Murray - Both Sides Now
TTITLE12=Woody Guthrie - Gambling Man
TTITLE13=The Judds - Love Can Build A Bridge
TTITLE14=The Carter Familiy - Foggy Mountain Top
TTITLE15=Waylon Jennings - Don't Think Twice, It's Alright
TTITLE16=Ray Stevens - Misty
TTITLE17=Kenny Rogers - Reuben James
TTITLE18=The Everly Brothers - Bye Bye Love
EXTD=
EXTT0=
EXTT1=
EXTT2=
EXTT3=
EXTT4=
EXTT5=
EXTT6=
EXTT7=
EXTT8=
EXTT9=
EXTT10=
EXTT11=
EXTT12=
EXTT13=
EXTT14=
EXTT15=
EXTT16=
EXTT17=
EXTT18=
PLAYORDER=
